@startuml 5
title Course Management System \n\n

!include rules.puml
skinparam titleFontSize 50

skinparam class {
    BackgroundColor<<abstract view>> SkyBlue
}

abstract class UploadContentUI <<abstract view>> {
    # selectedFile: File
    # metadata: Map<String, Object>
    # downloadAllowed: boolean
    + selectFile(file: File) : void
    + fillMetadata(data: Map<String, Object>) : void
    + setDownloadPermission(allowed: boolean) : void
    + upload() : void
    + showConfirmation() : void
    + validateFile(file: File) : boolean
}

class UploadVideoUI <<view>> {
    EMPTY_LINE
    
    + previewVideo() : void
    + selectSubtitleFile(file: File) : void
    # validateFile(file: File) : boolean
}

class UploadMaterialUI <<view>> {
    EMPTY_LINE
    
    + displayMaterialURL() : void
    # validateFile(file: File) : boolean
}

class CreateCourseUI <<view>> {
    EMPTY_LINE
    
    + fillCourseInformation(data: Map<String, Object>) : void
    + previewCourse() : void
    + editDetails() : void
    + submitCourse() : void
    + createStructure() : void
    + publishCourse() : void
}

class ContentManager <<control>> {
    EMPTY_LINE
    
    + processContentUpload(file: File, metadata: Map<String, Object>, type: String) : int
    + validateFileType(file: File, allowedTypes: List<String>) : boolean
    + generateThumbnail(file: File) : String
    + saveToDatabase(content: Content) : void
    + fetchContentFromDB(contentId: String) : Content
    + updateContentMetadata(id: String, data: Map<String, Object>) : boolean
    + deleteContent(contentId: int) : boolean
}

class VideoUploadManager <<control>> {
    EMPTY_LINE
    
    + processVideoUpload(videoFile: File, metadata: Map<String, Object>) : String
    + generateThumbnail(videoFile: File) : String
    + generateSubtitle(subtitleFile: File) : void
    + createQualityVersions(videoFile: File) : List<String>
}

class MaterialUploadManager <<control>> {
    EMPTY_LINE
    
    + processMaterialUpload(file: File, details: String) : int
    + generatePreview(file: File) : String
    + validateDocumentFormat(file: File) : boolean
}

class CourseManager <<control>> {
    EMPTY_LINE
    
    + createCourse(courseData: Map<String, Object>) : String
    + validateCourseInfo(data: Map<String, Object>) : boolean
    + generateCourseId() : String
    + createCourseStructure(sections: List) : void
    + saveCourseStructure(courseId: String, structure: List<Section>) : void
    + publishCourse(courseId: String) : void
    + generateCourseURL(courseId: String) : String
    + sendConfirmation(courseId: String) : void
    + getCourseOverview(courseId: String) : Course
}

class Course <<model>> {
    - courseId : String
    - title : String
    - instructorId : String
    - courseURL: String
    - sections: List<Section>
    + saveCourses(data: Map<String, Object>) : void
    + getCourseStructure() : List<Section>
}

class Section <<model>> {
    - sectionId: String
    - sectionName: String
    - courseId: String
    + createSection(name: String, courseId: String) : void
}

class Content <<model>> {
    - contentId: String
    - contentType: String
    - contentTitle: String
    - contentURL: String
    - contentFileType: String
    - downloadAllowed: boolean
    --
    EMPTY_LINE
}

class Material <<model>> {
    EMPTY_LINE
    
    + saveMaterial(data: Map<String, Object>) : void
}

class Video <<model>> {
    EMPTY_LINE
    
    + saveVideo(videoData: Map<String, Object>) : void
}

UploadContentUI <|-- UploadVideoUI
UploadContentUI <|-- UploadMaterialUI
UploadVideoUI -[hidden]down-> CreateCourseUI

CreateCourseUI -right--> CourseManager

ContentManager <|-- VideoUploadManager
ContentManager <|-- MaterialUploadManager

VideoUploadManager --> Content
MaterialUploadManager --> Content

Course "1" *-- "*" Section
Section o-- Content

Content <|-- Material
Content <|-- Video

ContentManager <-- UploadVideoUI
ContentManager <-- UploadMaterialUI

@enduml