@startuml 3
title Review and Rating System \n\n

!include rules.puml

skinparam titleFontSize 50

enum ModerationStatus <<enumeration>> {
    PENDING,
    APPROVE,
    REJECTED
}

class WriteReviewUI <<view>> {
    EMPTY_LINE

    +selectRatings(stars: int) : void
    +writeReviewText(text: String) : void
    +submitReview() : void
    +reportReview(reviewId: String) : void
    +writeReason(reason: String) : void
}

class ViewReviewsUI <<view>> {
    EMPTY_LINE

    +displayAllReviews(reviews: List<Review>) : void
    +showCourseRating(rating: double) : void
    +readReview(reviewId: String) : void
    +viewInstructorReply(reviewId: String) : void
}

class InstructorReviewUI <<view>> {
    EMPTY_LINE

    +viewReviewsForCourse(courseId: String) : void
    +selectReview(reviewId: String) : void
    +writeReply(reply: String) : void
    +submitReply() : void
}

class AdminModerationUI <<view>> {
    EMPTY_LINE

    +viewModerationQueue() : void
    +selectReview(reviewId: String): void
    +approveReview(reviewId: String) : void
    +rejectReview(reviewId: String) : void
}

class ReviewManager <<control>> {
    EMPTY_LINE
    
    +createReview(studentId: String, courseId: String, rating: double, text: String) : String
    +calculateRiskScore(review: Review) : int
    +getModerationStatus(review: Review) : ModerationStatus
    +autoApproveReview(reviewId: String) : void
    +autoRejectReview(reviewId: String) : void
    +sendToAdminQueue(reviewId: String) : void
    +getReviewsByCourse(courseId: String) : List<Review>
    +saveReply(reviewId: String, reply: String) : void
}

class ModerationQueue <<control>> {
    EMPTY_LINE
    
    +getTopReview() : Review
    +approveReview(reviewId: String) : void
    +rejectReview(reviewId: String) : void
    +checkQueueEmpty() : boolean
}

class Review <<model>> {
    -reviewId: String
    -studentId: String
    -courseId: String
    -rating: double
    -reviewText: String
    -reviewDate: String
    -moderationStatus: ModerationStatus
    -isPublished: boolean
    +createReview(data: Map<String, Object>) : boolean
}

class Reply <<model>> {
    -replyId: String
    -reviewId: String
    -instructorId: String
    -replyText: String
    -replyDate: String
    --
    EMPTY_LINE
}

class Report <<model>> {
    -reportId: String
    -reviewId: String
    -reporterId: String
    -reason: String
    -reportDate: String
    --
    EMPTY_LINE
}

' Relationships
WriteReviewUI --> ReviewManager
ViewReviewsUI --> ReviewManager
InstructorReviewUI --> ReviewManager
AdminModerationUI --> ModerationQueue
ModerationQueue --> Review
ReviewManager --> Review
ReviewManager --> Reply
ReviewManager --> Report
Review "1" -- "0..1" Reply

ModerationStatus -right..> Review

@enduml